# xmcd
#
# Track frame offsets:
#	150
#	19176
#	35210
#	53352
#	69112
#	89344
#	105484
#	124225
#	138358
#	157320
#	173348
#	191473
#	207245
#	227455
#	243582
#	262268
#	287778
#
# Disc length: 3849 seconds
#
# Revision: 0
# Processed by: cddbd v1.5.2PL0 Copyright (c) Steve Scherf et al.
# Submitted via: audiograbber 1.83.01
#
DISCID=ec0f0711
DTITLE=Sound Choice - 2438
DYEAR=1900
DGENRE=Country
TTITLE0=Alan Jackson and Jimmy Buffet - It's 5 O'Clock Somewhere
TTITLE1=Randy Travis - Three Wooden Crosses
TTITLE2=Keith Urban - Somebody Like You
TTITLE3=Mark Wills - 19 Somethin'
TTITLE4=Toby Keith - Who's Your Daddy?
TTITLE5=Toby Keith and Willie Nelson - Beer For My Horses
TTITLE6=Darryl Worley - Have You Forgotten?
TTITLE7=George Strait - She'll Leave You With A Smile
TTITLE8=Alan Jackson and Jimmy Buffet - It's 5 O'Clock Somewhere (Vocals)
TTITLE9=Randy Travis - Three Wooden Crosses (Vocals)
TTITLE10=Keith Urban - Somebody Like You (Vocals)
TTITLE11=Mark Wills - 19 Somethin' (Vocals)
TTITLE12=Toby Keith - Who's Your Daddy? (Vocals)
TTITLE13=Toby Keith and Willie Nelson - Beer For My Horses (Vocals)
TTITLE14=Darryl Worley - Have You Forgotten? (Vocals)
TTITLE15=George Strait - She'll Leave You With A Smile (Vocals)
TTITLE16=Data Track
EXTD=
EXTT0=
EXTT1=
EXTT2=
EXTT3=
EXTT4=
EXTT5=
EXTT6=
EXTT7=
EXTT8=
EXTT9=
EXTT10=
EXTT11=
EXTT12=
EXTT13=
EXTT14=
EXTT15=
EXTT16=
PLAYORDER=
